<svg width="1302" height="362" viewBox="0 0 1302 362" fill="none" xmlns="http://www.w3.org/2000/svg">
<path d="M1 211.405C87.6667 174.108 174.333 174.108 261 211.405C347.667 248.703 434.333 248.703 521 211.405C607.667 174.108 694.333 174.108 781 211.405C867.667 248.703 954.333 248.703 1041 211.405C1127.67 174.108 1214.33 174.108 1301 211.405" stroke="#005066" stroke-opacity="0.5" stroke-width="2"/>
<path d="M1 28.973C87.6667 -8.32432 174.333 -8.32432 261 28.973C347.667 66.2703 434.333 66.2703 521 28.973C607.667 -8.32432 694.333 -8.32432 781 28.973C867.667 66.2703 954.333 66.2703 1041 28.973C1127.67 -8.32432 1214.33 -8.32432 1301 28.973" stroke="#005066" stroke-opacity="0.5" stroke-width="2"/>
<path d="M1 333.027C87.6667 295.73 174.333 295.73 261 333.027C347.667 370.324 434.333 370.324 521 333.027C607.667 295.73 694.333 295.73 781 333.027C867.667 370.324 954.333 370.324 1041 333.027C1127.67 295.73 1214.33 295.73 1301 333.027" stroke="#005066" stroke-opacity="0.5" stroke-width="2"/>
<path d="M1 150.595C87.6667 113.297 174.333 113.297 261 150.595C347.667 187.892 434.333 187.892 521 150.595C607.667 113.297 694.333 113.297 781 150.595C867.667 187.892 954.333 187.892 1041 150.595C1127.67 113.297 1214.33 113.297 1301 150.595" stroke="#005066" stroke-opacity="0.5" stroke-width="2"/>
<path d="M1 272.216C87.6667 234.919 174.333 234.919 261 272.216C347.667 309.513 434.333 309.513 521 272.216C607.667 234.919 694.333 234.919 781 272.216C867.667 309.513 954.333 309.513 1041 272.216C1127.67 234.919 1214.33 234.919 1301 272.216" stroke="#005066" stroke-opacity="0.5" stroke-width="2"/>
<path d="M1 89.7838C87.6667 52.4865 174.333 52.4865 261 89.7838C347.667 127.081 434.333 127.081 521 89.7838C607.667 52.4865 694.333 52.4865 781 89.7838C867.667 127.081 954.333 127.081 1041 89.7838C1127.67 52.4865 1214.33 52.4865 1301 89.7838" stroke="#005066" stroke-opacity="0.5" stroke-width="2"/>
</svg>
