<svg width="74" height="74" viewBox="0 0 74 74" fill="none" xmlns="http://www.w3.org/2000/svg">
<path d="M23.3411 15.4923L18.8527 8.06758L19.3069 8.19264L15.9642 10.2134L15.3868 9.25831L22.6113 4.89094L23.1887 5.84599L19.846 7.86671L19.9463 7.40642L24.4348 14.8312L23.3411 15.4923Z" fill="white"/>
<path d="M32.8383 7.45095L32.771 6.33699L37.4784 6.05224L37.5457 7.16621L32.8383 7.45095Z" fill="white"/>
<path d="M45.1015 12.8521L48.9799 4.2346L55.086 6.98273L54.628 8.00041L49.3919 5.64382L49.8203 5.48133L46.2669 13.3766L45.1015 12.8521Z" fill="white"/>
<path d="M56.6684 21.3118C56.106 20.5939 55.7596 19.821 55.6294 18.9931C55.5159 18.1673 55.6131 17.3671 55.9209 16.5925C56.2381 15.8104 56.7651 15.1308 57.5019 14.5535C58.2481 13.9689 59.0341 13.6198 59.8599 13.5064C60.6857 13.393 61.4812 13.4938 62.2464 13.809C63.0116 14.1242 63.6792 14.6454 64.249 15.3728C64.8263 16.1096 65.1763 16.8872 65.2992 17.7056C65.4295 18.5334 65.337 19.3299 65.0219 20.0951C64.7141 20.8698 64.1871 21.5494 63.4409 22.1341C62.7041 22.7113 61.918 23.0604 61.0828 23.1812C60.2644 23.3041 59.4642 23.2069 58.6821 22.8897C57.9095 22.5651 57.2383 22.0391 56.6684 21.3118ZM57.5611 20.6124C57.9829 21.1508 58.4747 21.5354 59.0365 21.766C59.6078 21.9892 60.2031 22.0487 60.8227 21.9444C61.4591 21.8422 62.0654 21.5653 62.6416 21.1139C63.2273 20.6551 63.6411 20.1326 63.8833 19.5466C64.1328 18.97 64.2128 18.3814 64.1233 17.7807C64.0433 17.1727 63.7961 16.6042 63.3816 16.0752C62.9672 15.5462 62.4743 15.1701 61.9031 14.9469C61.3413 14.7163 60.747 14.6484 60.12 14.7432C59.4931 14.838 58.8868 15.1149 58.3011 15.5737C57.7249 16.0251 57.311 16.5476 57.0595 17.141C56.8174 17.727 56.7363 18.3241 56.8163 18.9321C56.9058 19.5328 57.1541 20.0929 57.5611 20.6124Z" fill="white"/>
<path d="M60.7224 26.7911L61.8186 26.6817C61.8219 26.7665 61.8183 26.8465 61.8077 26.9216C61.811 27.0064 61.8181 27.0783 61.8289 27.1373C61.8981 27.515 62.0949 27.7901 62.4193 27.9624C62.7458 28.1466 63.156 28.2544 63.6498 28.2859C64.1435 28.3174 64.6898 28.3027 65.2886 28.2418C65.8993 28.1787 66.5088 28.1097 67.1173 28.0348L70.4574 27.5874L71.7065 34.4039L62.4113 36.1073L62.1809 34.8502L70.7502 33.2798L70.4368 33.6667L69.5089 28.603L69.9536 28.8326L67.2364 29.1841C66.4273 29.2958 65.6482 29.3715 64.8991 29.4112C64.1521 29.4626 63.4839 29.4448 62.8946 29.3576C62.3074 29.2822 61.8252 29.1144 61.4481 28.8541C61.0828 28.5916 60.8547 28.2125 60.7639 27.7168C60.7379 27.5751 60.7227 27.4254 60.7182 27.2677C60.7158 27.1217 60.7172 26.9629 60.7224 26.7911Z" fill="white"/>
<path d="M60.9018 44.3317C61.1731 43.461 61.6125 42.7369 62.2198 42.1594C62.8349 41.597 63.5487 41.2223 64.3611 41.0356C65.1849 40.8524 66.0436 40.9 66.9372 41.1784C67.8423 41.4605 68.576 41.9091 69.1385 42.5243C69.7009 43.1395 70.0698 43.8514 70.2451 44.6602C70.4205 45.469 70.3707 46.3145 70.0958 47.1966C69.8173 48.0902 69.3762 48.8201 68.7725 49.3861C68.1652 49.9636 67.4572 50.34 66.6484 50.5153C65.836 50.7021 64.9773 50.6544 64.0722 50.3724C63.1786 50.0939 62.4449 49.6453 61.871 49.0266C61.3049 48.4228 60.9303 47.7091 60.7471 46.8853C60.5754 46.065 60.6269 45.2138 60.9018 44.3317ZM61.9845 44.669C61.781 45.3221 61.7439 45.9453 61.8732 46.5386C62.014 47.1355 62.3033 47.6593 62.7411 48.1099C63.1867 48.5756 63.759 48.9173 64.4578 49.1351C65.1681 49.3564 65.8332 49.4003 66.453 49.2666C67.0693 49.1444 67.5992 48.8759 68.0427 48.4611C68.4976 48.0498 68.825 47.5234 69.025 46.8818C69.2249 46.2402 69.2545 45.621 69.1137 45.0241C68.9843 44.4307 68.7026 43.903 68.2684 43.4409C67.8342 42.9788 67.2619 42.6371 66.5516 42.4158C65.8528 42.198 65.1877 42.1541 64.5564 42.2842C63.9366 42.4179 63.3992 42.6903 62.9443 43.1016C62.5008 43.5164 62.1808 44.0389 61.9845 44.669Z" fill="white"/>
<path d="M54.075 55.2481C54.7369 54.5862 55.4751 54.1365 56.2897 53.8989C57.1043 53.6783 57.9146 53.6741 58.7207 53.8862C59.5353 54.1068 60.2735 54.548 60.9354 55.2099C61.6057 55.8802 62.0469 56.6185 62.2591 57.4246C62.4712 58.2307 62.4627 59.0368 62.2336 59.8429C61.996 60.6574 61.5463 61.3957 60.8845 62.0575C60.316 62.626 59.6923 63.0291 59.0135 63.2667C58.3346 63.5043 57.6431 63.534 56.9388 63.3558L57.1552 62.223C57.7237 62.3333 58.2583 62.2994 58.7589 62.1212C59.2595 61.943 59.7093 61.6545 60.1081 61.2557C60.5832 60.7805 60.9014 60.2417 61.0627 59.6392C61.2324 59.0452 61.2324 58.4428 61.0627 57.8319C60.893 57.2209 60.5451 56.6524 60.019 56.1263C59.4929 55.6002 58.9244 55.2523 58.3134 55.0826C57.7025 54.9129 57.0958 54.9087 56.4933 55.0699C55.8994 55.2396 55.3648 55.562 54.8896 56.0372C54.4908 56.436 54.2023 56.8857 54.0241 57.3864C53.8459 57.887 53.8077 58.4173 53.9096 58.9774L52.7768 59.1937C52.6071 58.4979 52.6368 57.8064 52.8659 57.1191C53.1035 56.4403 53.5065 55.8166 54.075 55.2481Z" fill="white"/>
<path d="M44.3617 60.8925C45.2324 60.6212 46.0779 60.5714 46.8981 60.7431C47.7104 60.9299 48.4242 61.3045 49.0394 61.867C49.6582 62.4409 50.1068 63.1746 50.3852 64.0683C50.6673 64.9733 50.7149 65.832 50.5281 66.6444C50.3413 67.4567 49.9649 68.1648 49.3989 68.7685C48.8329 69.3722 48.1088 69.8115 47.2266 70.0864C46.333 70.3649 45.4818 70.4165 44.673 70.2411C43.8528 70.0694 43.1408 69.7005 42.5371 69.1345C41.9219 68.572 41.4733 67.8383 41.1913 66.9332C40.9128 66.0396 40.8652 65.1809 41.0484 64.3571C41.2237 63.5483 41.5983 62.8345 42.1722 62.2158C42.7497 61.6085 43.4795 61.1674 44.3617 60.8925ZM44.699 61.9751C44.046 62.1786 43.5121 62.5021 43.0972 62.9456C42.686 63.4006 42.4192 63.9362 42.297 64.5524C42.167 65.1837 42.2108 65.8488 42.4286 66.5476C42.6499 67.258 42.9916 67.8302 43.4537 68.2644C43.9044 68.7021 44.4264 68.9857 45.0197 69.115C45.6166 69.2558 46.2359 69.2262 46.8774 69.0263C47.519 68.8264 48.0454 68.499 48.4567 68.044C48.8715 67.6005 49.1458 67.0689 49.2794 66.449C49.4131 65.8292 49.3692 65.1641 49.1479 64.4538C48.9301 63.755 48.5884 63.1827 48.1227 62.7371C47.6607 62.3029 47.1312 62.0154 46.5342 61.8746C45.9409 61.7453 45.3292 61.7788 44.699 61.9751Z" fill="white"/>
<path d="M35.7761 62.3506L34.0727 71.6458L29.9651 70.893C28.9146 70.7005 28.1251 70.3485 27.5967 69.8368C27.0565 69.323 26.8577 68.6766 27.0005 67.8976C27.1389 67.1422 27.5352 66.6109 28.1893 66.3038C28.8412 66.0084 29.6393 65.9473 30.5836 66.1203L30.2675 66.4467C29.158 66.2434 28.3814 65.8876 27.9378 65.3793C27.4941 64.871 27.3437 64.2273 27.4865 63.4483C27.6336 62.6457 28.0433 62.0742 28.7157 61.7338C29.3741 61.4031 30.317 61.3502 31.5446 61.5751L35.7761 62.3506ZM34.3728 63.1182L31.416 62.5764C30.6252 62.4314 30.0064 62.4461 29.5597 62.6205C29.0989 62.8044 28.8167 63.1797 28.7129 63.7463C28.609 64.3128 28.7163 64.7595 29.0346 65.0862C29.3529 65.4129 29.9075 65.6488 30.6983 65.7937L33.779 66.3582L34.3728 63.1182ZM33.607 67.2966L30.8096 66.784C30.0896 66.652 29.5159 66.6872 29.0884 66.8894C28.6492 67.0895 28.3819 67.4493 28.2868 67.9686C28.1916 68.488 28.315 68.9132 28.6569 69.2442C28.987 69.5731 29.5121 69.8035 30.2321 69.9355L33.0295 70.4481L33.607 67.2966Z" fill="white"/>
<path d="M19.2521 55.1691L17.9643 56.8127L17.7959 57.1153L15.6424 59.8641C15.1465 60.497 14.9449 61.1241 15.0374 61.7454C15.1205 62.3593 15.5115 62.94 16.2106 63.4877C16.6923 63.8651 17.2134 64.1437 17.7737 64.3236C18.334 64.5034 18.8689 64.5795 19.3784 64.5518L19.2435 65.658C18.614 65.6832 17.9682 65.5736 17.306 65.3292C16.6364 65.0942 16.0088 64.7473 15.4231 64.2885C14.4596 63.5336 13.9068 62.7118 13.7647 61.823C13.6057 60.9362 13.9074 60.0064 14.6696 59.0334L18.2885 54.4142L19.2521 55.1691ZM21.8722 57.1075C22.4295 57.5442 22.8457 58.015 23.1207 58.5201C23.3789 59.0273 23.4908 59.5266 23.4564 60.0179C23.4147 60.5188 23.2273 60.9817 22.8943 61.4068C22.5908 61.7941 22.2273 62.0733 21.8036 62.2444C21.363 62.4176 20.8609 62.4358 20.2973 62.2991C19.7168 62.1644 19.0723 61.8196 18.3639 61.2645L15.7992 59.2553L16.3876 58.5043L18.9239 60.4914C19.6418 61.0538 20.2423 61.3185 20.7255 61.2855C21.1993 61.2451 21.5842 61.0359 21.8802 60.6581C22.2132 60.233 22.3144 59.7634 22.1836 59.2494C22.0528 58.7353 21.6898 58.2451 21.0947 57.7789C20.5279 57.3349 19.9415 57.0812 19.3355 57.0181C18.7127 56.9569 18.1144 57.098 17.5406 57.4412L17.8579 56.5692C18.4316 56.2261 19.0694 56.0931 19.7711 56.1703C20.4634 56.2401 21.1637 56.5525 21.8722 57.1075Z" fill="white"/>
<path d="M15.5046 50.9954L6.88717 54.8738L6.36267 53.7083L10.1708 51.9945L7.72552 46.5614L3.91743 48.2752L3.39292 47.1098L12.0104 43.2314L12.5349 44.3968L8.72679 46.1107L11.172 51.5438L14.9801 49.8299L15.5046 50.9954Z" fill="white"/>
<path d="M11.3712 39.5766L1.93844 39.006L2.0156 37.7303L9.50791 38.1835L2.39708 31.4238L2.46555 30.2919L11.8983 30.8625L11.8211 32.1382L4.31087 31.6839L11.4408 38.4267L11.3712 39.5766Z" fill="white"/>
<path d="M15.4614 23.5662C14.9523 24.4083 14.3308 25.0421 13.5967 25.4678C12.8524 25.8872 12.0635 26.0904 11.2301 26.0773C10.3863 26.058 9.56398 25.8063 8.76297 25.3221C7.96195 24.8378 7.3558 24.24 6.9445 23.5287C6.53942 22.807 6.34232 22.0429 6.35323 21.2362C6.36008 20.413 6.5901 19.6266 7.04329 18.8769C7.50268 18.117 8.08389 17.5499 8.78691 17.1756C9.48586 16.7848 10.251 16.6093 11.0823 16.6491C11.9033 16.6827 12.7195 16.9448 13.5308 17.4352C13.5821 17.4662 13.6355 17.5055 13.6909 17.553C13.7422 17.5841 13.7987 17.6182 13.8603 17.6555L9.60471 24.6951L8.78829 24.2016L12.6901 17.7473L12.7528 18.3741C12.1674 18.0203 11.5712 17.8351 10.9642 17.8187C10.3531 17.7858 9.78878 17.9074 9.27131 18.1835C8.75383 18.4597 8.32438 18.8801 7.98293 19.4449C7.6477 19.9995 7.47498 20.5751 7.46476 21.1719C7.45455 21.7687 7.60601 22.33 7.91914 22.8559C8.23227 23.3817 8.68664 23.8246 9.28227 24.1847L9.45171 24.2871C10.0679 24.6596 10.6929 24.8551 11.3267 24.8737C11.9564 24.8758 12.5507 24.7162 13.1094 24.395C13.6642 24.0572 14.1309 23.5751 14.5096 22.9487C14.8075 22.4558 14.9965 21.946 15.0765 21.4194C15.1626 20.8826 15.1191 20.3515 14.9459 19.8261L16.027 19.6383C16.241 20.2585 16.2965 20.909 16.1934 21.5899C16.0965 22.2604 15.8525 22.9192 15.4614 23.5662Z" fill="white"/>
</svg>
